<?xml version="1.0" encoding="iso-8859-1"?>
<!-- Generator: Adobe Illustrator 16.0.0, SVG Export Plug-In . SVG Version: 6.00 Build 0)  -->
<!DOCTYPE svg PUBLIC "-//W3C//DTD SVG 1.1//EN" "http://www.w3.org/Graphics/SVG/1.1/DTD/svg11.dtd">
<svg xmlns="http://www.w3.org/2000/svg" xmlns:xlink="http://www.w3.org/1999/xlink" version="1.1" id="Capa_1" x="0px" y="0px" width="512px" height="512px" viewBox="0 0 100 100" style="enable-background:new 0 0 100 100;" xml:space="preserve">
<g>
	<path d="M94,6H6c-3.313,0-6,2.687-6,6v76c0,3.312,2.687,6,6,6h88c3.314,0,6-2.688,6-6V12C100,8.686,97.314,6,94,6z M79,10   c2.205,0,4,1.794,4,4s-1.795,4-4,4s-4-1.794-4-4S76.795,10,79,10z M68,10c2.205,0,4,1.794,4,4s-1.795,4-4,4s-4-1.794-4-4   S65.795,10,68,10z M94,88H6V22h88V88z M90,18c-2.205,0-4-1.794-4-4s1.795-4,4-4s4,1.794,4,4S92.205,18,90,18z" fill="#933EC5"/>
	<g>
		<path d="M47.914,32.733c1.387-0.187,2.799-0.169,4.186-0.008c0.014,3.851,0.006,7.699,0,11.55    c-1.404-0.071-2.809-0.078-4.208,0.038C47.952,40.452,47.893,36.59,47.914,32.733z" fill="#933EC5"/>
		<path d="M32.907,36.473c1.258-0.543,2.517-1.085,3.803-1.562c1.528,3.559,3.001,7.145,4.456,10.732    c-1.346,0.392-2.58,1.069-3.894,1.542C35.862,43.597,34.273,40.079,32.907,36.473z" fill="#933EC5"/>
		<path d="M58.855,45.626c1.453-3.575,2.926-7.146,4.449-10.695c1.293,0.446,2.553,0.994,3.807,1.536    c-1.37,3.604-2.952,7.127-4.373,10.713C61.432,46.698,60.182,46.063,58.855,45.626z" fill="#933EC5"/>
		<path d="M20.54,45.884c0.713-1.15,1.875-2.111,2.925-3.009c2.658,2.797,5.515,5.404,8.123,8.238    c-1.086,0.861-1.989,1.914-2.973,2.887C25.949,51.268,23.218,48.6,20.54,45.884z" fill="#933EC5"/>
		<path d="M76.538,42.946c1.095,0.731,2.2,1.831,2.937,2.925c-2.682,2.727-5.401,5.413-8.098,8.122    c-0.941-1.03-1.947-1.993-2.953-2.957C71.127,48.337,73.814,45.624,76.538,42.946z" fill="#933EC5"/>
		<path d="M14.074,55.311c3.609,1.338,7.111,2.953,10.695,4.363c-0.434,1.325-1.152,2.547-1.533,3.896    c-3.578-1.482-7.164-2.952-10.735-4.451C12.984,57.835,13.521,56.568,14.074,55.311z" fill="#933EC5"/>
		<path d="M75.238,59.674c3.588-1.41,7.096-3.021,10.707-4.363c0.566,1.248,1.086,2.521,1.555,3.807    c-3.561,1.507-7.131,2.984-10.712,4.449C76.377,62.225,75.684,60.997,75.238,59.674z" fill="#933EC5"/>
	</g>
	<path d="M50.882,70.779c-0.339-0.071-0.688-0.113-1.049-0.113c-2.762,0-5,2.238-5,5s2.238,5,5,5c2.741,0,4.962-2.207,4.995-4.941   l8.253-12.806L50.882,70.779z" fill="#933EC5"/>
</g>
<g>
</g>
<g>
</g>
<g>
</g>
<g>
</g>
<g>
</g>
<g>
</g>
<g>
</g>
<g>
</g>
<g>
</g>
<g>
</g>
<g>
</g>
<g>
</g>
<g>
</g>
<g>
</g>
<g>
</g>
</svg>
